<?xml version="1.0" encoding="UTF-8"?>
<svg id="Layer_1" xmlns="http://www.w3.org/2000/svg" version="1.1" viewBox="0 0 972.5 274.5">
  <!-- Generator: Adobe Illustrator 29.1.0, SVG Export Plug-In . SVG Version: 2.1.0 Build 142)  -->
  <defs>
    <style>
      .st0 {
        fill: #0554f1;
      }

      .st1 {
        fill: #06d0f1;
      }

      .st2 {
        fill: #262626;
      }

      .st3 {
        fill: #013ab7;
      }
    </style>
  </defs>
  <polygon class="st3" points="234.9 225 200.5 225 226 269.2 311.4 269.2 232.4 132.5 181.4 132.5 234.9 225"/>
  <polygon class="st0" points="104.7 184.8 158.2 92.1 175.4 121.9 200.9 77.8 158.2 3.8 79.2 140.6 104.7 184.8"/>
  <polygon class="st1" points="98.6 195.3 47.6 195.3 5 269.2 162.9 269.2 188.4 225 81.5 225 98.6 195.3"/>
  <g>
    <path class="st2" d="M328.3,91.8h27.7c19.5,0,34,6.8,34,27.1s-14.5,28.5-33.5,28.5h-12.6v32.3h-15.6v-88ZM355.3,134.9c13.1,0,19.4-5.2,19.4-16s-6.8-14.6-19.9-14.6h-10.8v30.7h11.4Z"/>
    <path class="st2" d="M405.3,113.7h12.7l1.2,11.8h.4c4.7-8.6,11.7-13.4,18.8-13.4s5.5.4,7.5,1.3l-2.7,13.5c-2.3-.6-4-1.1-6.8-1.1-5.3,0-11.6,3.6-15.6,13.7v40.3h-15.5v-66.1Z"/>
    <path class="st2" d="M453.7,93.3c0-5.2,4.1-8.8,9.6-8.8s9.6,3.6,9.6,8.8-4.1,8.8-9.6,8.8-9.6-3.7-9.6-8.8ZM455.5,113.7h15.5v66.1h-15.5v-66.1Z"/>
    <path class="st2" d="M484.2,172.2l7.2-9.8c5.9,4.6,11.5,7.4,18.2,7.4s10.6-3.4,10.6-7.9-7.2-8-14.2-10.7c-8.7-3.3-18.6-8.2-18.6-19.3s9.3-19.8,24.1-19.8,16.6,3.7,22,7.9l-7.1,9.5c-4.6-3.4-9.3-5.8-14.5-5.8s-9.8,3.2-9.8,7.3,6.7,7.2,13.8,9.8c8.9,3.3,18.9,7.6,18.9,20s-9,20.5-25.7,20.5-18.6-3.9-25-9.2Z"/>
    <path class="st2" d="M548.7,113.7h12.7l1.2,9h.4c5.6-5.8,12-10.6,20.3-10.6s15.2,4.4,18.2,11.8c6.3-6.7,12.9-11.8,21.3-11.8,13.9,0,20.4,9.6,20.4,26.3v41.4h-15.5v-39.5c0-10.9-3.2-15-10.2-15s-8.7,2.7-13.8,8.2v46.2h-15.5v-39.5c0-10.9-3.2-15-10.2-15s-8.7,2.7-13.8,8.2v46.2h-15.5v-66.1Z"/>
    <path class="st2" d="M658.9,136.1c0-28.8,18-45.9,40.3-45.9s19.8,5.3,25.3,11.1l-8.3,10.1c-4.5-4.5-9.8-7.6-16.7-7.6-14.3,0-24.6,12.1-24.6,31.9s9.5,32.2,24.2,32.2,13.8-3.6,18.8-9l8.3,9.8c-7.1,8.3-16.3,12.8-27.7,12.8-22.1,0-39.7-16.2-39.7-45.3Z"/>
    <path class="st2" d="M735.3,146.8c0-22,15-34.7,31.4-34.7s31.4,12.7,31.4,34.7-15,34.6-31.4,34.6-31.4-12.7-31.4-34.6ZM782.2,146.8c0-13.2-5.8-22.1-15.5-22.1s-15.5,8.8-15.5,22.1,5.8,22,15.5,22,15.5-8.7,15.5-22Z"/>
    <path class="st2" d="M812.7,162.8v-78h15.5v78.8c0,3.8,1.7,5.2,3.3,5.2s1.2,0,2.4-.3l1.9,11.6c-1.9.8-4.5,1.3-8.2,1.3-11,0-15-7.1-15-18.6Z"/>
    <path class="st2" d="M844.8,146.8c0-22,15-34.7,31.4-34.7s31.4,12.7,31.4,34.7-15,34.6-31.4,34.6-31.4-12.7-31.4-34.6ZM891.8,146.8c0-13.2-5.8-22.1-15.5-22.1s-15.5,8.8-15.5,22.1,5.8,22,15.5,22,15.5-8.7,15.5-22Z"/>
    <path class="st2" d="M923.1,113.7h12.7l1.2,11.8h.4c4.7-8.6,11.7-13.4,18.8-13.4s5.5.4,7.5,1.3l-2.7,13.5c-2.3-.6-4-1.1-6.8-1.1-5.3,0-11.6,3.6-15.6,13.7v40.3h-15.5v-66.1Z"/>
  </g>
  <g>
    <polygon class="st1" points="110.6 196 110.6 196 110.6 196 47.3 196 4.5 270.1 162.9 270.1 194.6 215.3 194.6 215.3 99.5 215.3 110.6 196"/>
    <polygon class="st0" points="169.3 132.9 201 78.1 158.2 3.9 78.9 141.1 110.6 196 110.6 196 158.2 113.6 169.3 132.9 169.3 132.9"/>
    <polygon class="st3" points="232.7 132.9 169.3 132.9 169.3 132.9 169.3 132.9 216.9 215.3 194.6 215.3 194.6 215.3 226.2 270.1 311.9 270.1 232.7 132.9"/>
  </g>
</svg>