<?xml version="1.0" encoding="UTF-8"?>
<svg id="Layer_1" data-name="Layer 1" xmlns="http://www.w3.org/2000/svg" xmlns:xlink="http://www.w3.org/1999/xlink" viewBox="0 0 1013.4 288.81">
  <defs>
    <style>
      .cls-1 {
        mask: url(#mask);
      }

      .cls-2 {
        fill: #3473f6;
      }

      .cls-3 {
        fill: #d9d9d9;
      }

      .cls-4 {
        fill: #021d55;
      }

      .cls-5 {
        fill: #71a2fa;
      }

      .cls-6 {
        fill: #032d82;
      }

      .cls-7 {
        fill: #001322;
      }

      .cls-8 {
        fill: #ccdffd;
      }

      .cls-9 {
        fill: #0548d1;
      }

      .cls-10 {
        fill: #053fb6;
      }

      .cls-11 {
        fill: #86b0fb;
      }
    </style>
    <mask id="mask" x="-123.52" y="-125.18" width="448.94" height="495.41" maskUnits="userSpaceOnUse">
      <g id="mask0_8_410" data-name="mask0 8 410">
        <path class="cls-3" d="M1.6,1.02l243.2,140.41L1.6,281.85V1.02Z"/>
      </g>
    </mask>
  </defs>
  <path d="M530.47,184.49v-66.37h12.29c2.47,0,4.1,1.11,4.86,3.33l1.09,3.58c1.11-1.15,2.26-2.2,3.46-3.14,1.2-.98,2.47-1.81,3.84-2.5,1.41-.73,2.9-1.28,4.48-1.66,1.62-.43,3.39-.64,5.31-.64,4.01,0,7.32,1.04,9.92,3.14,2.64,2.05,4.65,4.8,6.02,8.26,1.11-2.05,2.45-3.8,4.03-5.25,1.62-1.45,3.35-2.62,5.18-3.52,1.88-.9,3.84-1.56,5.89-1.98,2.09-.43,4.16-.64,6.21-.64,3.8,0,7.17.58,10.11,1.73,2.94,1.11,5.4,2.75,7.36,4.93,2.01,2.13,3.52,4.78,4.54,7.94,1.02,3.12,1.54,6.66,1.54,10.62v42.18h-19.84v-42.18c0-6.87-2.94-10.3-8.83-10.3-2.69,0-4.93.9-6.72,2.69-1.75,1.75-2.62,4.29-2.62,7.62v42.18h-19.84v-42.18c0-3.8-.75-6.46-2.24-8-1.49-1.54-3.69-2.3-6.59-2.3-1.79,0-3.5.4-5.12,1.22-1.58.81-3.07,1.9-4.48,3.26v48h-19.84Z"/>
  <g class="cls-1">
    <g>
      <rect class="cls-8" x="-84.94" y="-108.17" width="92.95" height="92.95" transform="translate(25.7 -27.5) rotate(-30)"/>
      <rect class="cls-11" x="-38.47" y="-27.68" width="92.95" height="92.95" transform="translate(-8.33 6.52) rotate(-30)"/>
      <rect class="cls-5" x="42.03" y="-74.15" width="92.95" height="92.95" transform="translate(25.7 40.54) rotate(-30)"/>
      <rect class="cls-10" x="-106.51" y="226.25" width="92.95" height="92.95" transform="translate(-144.41 6.52) rotate(-30)"/>
      <rect class="cls-10" x="-26.01" y="179.78" width="92.95" height="92.95" transform="translate(-110.39 40.54) rotate(-30)"/>
      <rect class="cls-11" x="-72.49" y="99.29" width="92.95" height="92.95" transform="translate(-76.37 6.52) rotate(-30)"/>
      <rect class="cls-6" x="54.48" y="133.31" width="92.95" height="92.95" transform="translate(-76.37 74.56) rotate(-30)"/>
      <rect class="cls-7" x="20.46" y="260.27" width="92.95" height="92.95" transform="translate(-144.41 74.56) rotate(-30)"/>
      <rect class="cls-7" x="134.97" y="86.84" width="92.95" height="92.95" transform="translate(-42.35 108.58) rotate(-30)"/>
      <rect class="cls-2" x="8.01" y="52.82" width="92.95" height="92.95" transform="translate(-42.35 40.54) rotate(-30)"/>
      <rect class="cls-4" x="215.46" y="40.36" width="92.95" height="92.95" transform="translate(-8.32 142.6) rotate(-30)"/>
      <rect x="100.95" y="213.8" width="92.95" height="92.95" transform="translate(-110.39 108.58) rotate(-30)"/>
      <rect class="cls-9" x="88.5" y="6.34" width="92.95" height="92.95" transform="translate(-8.33 74.56) rotate(-30)"/>
      <rect x="181.44" y="167.33" width="92.95" height="92.95" transform="translate(-76.37 142.6) rotate(-30)"/>
      <rect class="cls-9" x="168.99" y="-40.13" width="92.95" height="92.95" transform="translate(25.7 108.58) rotate(-30)"/>
    </g>
  </g>
  <path d="M330.11,136.47c5.63,0,9.68-1.34,12.16-4.03,2.48-2.69,3.71-6.44,3.71-11.26,0-2.13-.32-4.07-.96-5.82-.64-1.75-1.62-3.24-2.94-4.48-1.28-1.28-2.92-2.26-4.93-2.94-1.96-.68-4.31-1.02-7.04-1.02h-11.26v29.57h11.26ZM330.11,90.71c6.57,0,12.2.79,16.9,2.37,4.74,1.54,8.62,3.67,11.65,6.4,3.07,2.73,5.33,5.95,6.78,9.66,1.45,3.71,2.18,7.72,2.18,12.03,0,4.65-.75,8.92-2.24,12.8-1.49,3.88-3.78,7.21-6.85,9.98s-6.98,4.95-11.71,6.53c-4.69,1.54-10.26,2.3-16.7,2.3h-11.26v31.17h-21.63v-93.25h32.9Z"/>
  <path d="M395.97,127.83c2.05-3.58,4.39-6.4,7.04-8.45,2.69-2.05,5.76-3.07,9.22-3.07,2.99,0,5.42.7,7.3,2.11l-1.28,14.59c-.21.94-.58,1.58-1.09,1.92-.47.34-1.13.51-1.98.51-.34,0-.79-.02-1.34-.06s-1.13-.08-1.73-.13c-.6-.09-1.22-.15-1.86-.19-.6-.09-1.15-.13-1.66-.13-2.9,0-5.23.77-6.98,2.3-1.71,1.54-3.16,3.67-4.35,6.4v40.32h-19.84v-66.37h11.78c.98,0,1.79.08,2.43.26.68.17,1.24.45,1.66.83.47.34.81.81,1.02,1.41.26.6.47,1.32.64,2.18l1.02,5.57Z"/>
  <path d="M451.57,117.59v66.37h-19.84v-66.37h19.84ZM453.62,99.41c0,1.58-.32,3.07-.96,4.48-.64,1.36-1.52,2.58-2.62,3.65-1.11,1.02-2.41,1.86-3.9,2.5-1.45.6-3.01.9-4.67.9s-3.14-.3-4.54-.9c-1.41-.64-2.67-1.47-3.78-2.5-1.07-1.07-1.92-2.28-2.56-3.65-.6-1.41-.9-2.9-.9-4.48s.3-3.14.9-4.54c.64-1.41,1.49-2.65,2.56-3.71,1.11-1.07,2.37-1.9,3.78-2.5s2.92-.9,4.54-.9,3.22.3,4.67.9c1.49.6,2.79,1.43,3.9,2.5s1.98,2.3,2.62,3.71.96,2.92.96,4.54Z"/>
  <path d="M512.4,133.51c-.56.78-1.15,1.32-1.77,1.62-.58.3-1.31.43-2.2.37s-1.86-.31-2.77-.76c-.91-.49-1.9-1-2.98-1.54-1.03-.54-2.22-1.04-3.56-1.51-1.33-.51-2.88-.83-4.62-.94-2.51-.16-4.48.2-5.91,1.09-1.38.85-2.13,2.13-2.24,3.83-.08,1.23.28,2.28,1.08,3.15.84.87,1.97,1.67,3.37,2.4,1.41.69,3.01,1.37,4.81,2.04,1.8.67,3.63,1.41,5.5,2.22,1.87.81,3.69,1.73,5.46,2.79,1.77,1.01,3.34,2.25,4.7,3.7,1.36,1.41,2.41,3.11,3.14,5.08.77,1.97,1.07,4.3.9,6.98-.21,3.28-1,6.26-2.37,8.95-1.37,2.69-3.31,4.96-5.83,6.81-2.47,1.85-5.49,3.22-9.05,4.1-3.52.88-7.54,1.18-12.05.89-2.26-.15-4.5-.5-6.73-1.08-2.23-.57-4.39-1.29-6.47-2.15-2.04-.86-3.92-1.84-5.65-2.93-1.72-1.14-3.18-2.32-4.39-3.55l5.07-6.98c.57-.82,1.25-1.44,2.04-1.86.84-.46,1.88-.65,3.12-.57,1.15.07,2.15.4,3.02.96.9.57,1.87,1.19,2.89,1.85,1.03.66,2.22,1.3,3.6,1.9,1.41.6,3.21.98,5.38,1.12,1.53.1,2.84.03,3.92-.2,1.09-.27,1.97-.66,2.64-1.18.67-.51,1.18-1.1,1.52-1.76s.54-1.36.58-2.08c.09-1.32-.29-2.43-1.13-3.34-.84-.91-1.96-1.71-3.37-2.4-1.41-.73-3.03-1.41-4.87-2.05-1.8-.67-3.63-1.41-5.5-2.22-1.87-.81-3.71-1.74-5.53-2.79-1.77-1.1-3.33-2.42-4.68-3.96-1.35-1.58-2.41-3.47-3.16-5.66-.76-2.19-1.04-4.79-.84-7.81.18-2.81.89-5.44,2.11-7.88,1.27-2.48,3.06-4.61,5.35-6.39,2.3-1.78,5.12-3.11,8.47-4.01,3.35-.94,7.22-1.27,11.61-.98,2.38.15,4.67.52,6.86,1.08,2.23.57,4.3,1.3,6.21,2.2,1.91.89,3.64,1.92,5.19,3.09,1.55,1.13,2.91,2.35,4.06,3.66l-4.92,6.67Z"/>
  <path d="M709.45,159.83c.51,0,1.02.11,1.54.32.51.17,1,.49,1.47.96l8.58,9.02c-3.76,4.91-8.47,8.62-14.14,11.14-5.63,2.47-12.31,3.71-20.03,3.71-7.08,0-13.44-1.19-19.07-3.58-5.59-2.43-10.35-5.76-14.27-9.98-3.88-4.27-6.87-9.3-8.96-15.1-2.09-5.85-3.14-12.18-3.14-19.01s1.13-13.33,3.39-19.14c2.26-5.84,5.44-10.88,9.54-15.1s9-7.51,14.72-9.86c5.72-2.35,12.01-3.52,18.88-3.52,3.5,0,6.78.32,9.86.96,3.11.6,6.02,1.45,8.7,2.56,2.69,1.07,5.16,2.37,7.42,3.9,2.26,1.54,4.27,3.2,6.02,4.99l-7.3,9.79c-.47.6-1.02,1.15-1.66,1.66-.64.47-1.54.7-2.69.7-.77,0-1.49-.17-2.18-.51-.68-.34-1.41-.75-2.18-1.22-.77-.51-1.62-1.04-2.56-1.6-.9-.6-1.98-1.13-3.26-1.6-1.24-.51-2.71-.94-4.42-1.28-1.66-.34-3.63-.51-5.89-.51-3.58,0-6.87.66-9.86,1.98-2.94,1.32-5.5,3.26-7.68,5.82-2.13,2.52-3.8,5.63-4.99,9.34-1.15,3.67-1.73,7.87-1.73,12.61s.64,9.02,1.92,12.74c1.32,3.71,3.09,6.85,5.31,9.41,2.26,2.52,4.89,4.44,7.87,5.76s6.19,1.98,9.6,1.98c1.96,0,3.76-.08,5.38-.26,1.62-.21,3.14-.53,4.54-.96,1.41-.47,2.73-1.07,3.97-1.79,1.24-.77,2.5-1.73,3.78-2.88.51-.43,1.07-.77,1.66-1.02.6-.3,1.22-.45,1.86-.45Z"/>
  <path d="M761.27,116.57c5.03,0,9.62.79,13.76,2.37,4.14,1.58,7.68,3.84,10.62,6.78,2.99,2.94,5.29,6.53,6.91,10.75,1.66,4.18,2.5,8.9,2.5,14.14s-.83,10.07-2.5,14.34c-1.62,4.22-3.92,7.83-6.91,10.82-2.94,2.94-6.48,5.23-10.62,6.85-4.14,1.58-8.73,2.37-13.76,2.37s-9.71-.79-13.89-2.37c-4.14-1.62-7.72-3.9-10.75-6.85-2.99-2.99-5.31-6.59-6.98-10.82-1.62-4.27-2.43-9.04-2.43-14.34s.81-9.96,2.43-14.14c1.66-4.22,3.99-7.81,6.98-10.75,3.03-2.94,6.61-5.21,10.75-6.78,4.18-1.58,8.81-2.37,13.89-2.37ZM761.27,170.26c4.57,0,7.91-1.6,10.05-4.8,2.18-3.24,3.26-8.15,3.26-14.72s-1.09-11.46-3.26-14.66c-2.13-3.2-5.48-4.8-10.05-4.8s-8.13,1.6-10.3,4.8c-2.18,3.2-3.26,8.08-3.26,14.66s1.09,11.48,3.26,14.72c2.18,3.2,5.61,4.8,10.3,4.8Z"/>
  <path d="M826.94,88.15v95.81h-19.84v-95.81h19.84Z"/>
  <path d="M871.71,116.57c5.03,0,9.62.79,13.76,2.37,4.14,1.58,7.68,3.84,10.62,6.78,2.99,2.94,5.29,6.53,6.91,10.75,1.67,4.18,2.5,8.9,2.5,14.14s-.83,10.07-2.5,14.34c-1.62,4.22-3.92,7.83-6.91,10.82-2.94,2.94-6.48,5.23-10.62,6.85-4.14,1.58-8.73,2.37-13.76,2.37s-9.71-.79-13.89-2.37c-4.14-1.62-7.72-3.9-10.75-6.85-2.99-2.99-5.31-6.59-6.98-10.82-1.62-4.27-2.43-9.04-2.43-14.34s.81-9.96,2.43-14.14c1.66-4.22,3.99-7.81,6.98-10.75,3.03-2.94,6.61-5.21,10.75-6.78,4.18-1.58,8.81-2.37,13.89-2.37ZM871.71,170.26c4.57,0,7.91-1.6,10.05-4.8,2.18-3.24,3.26-8.15,3.26-14.72s-1.09-11.46-3.26-14.66c-2.13-3.2-5.48-4.8-10.05-4.8s-8.13,1.6-10.3,4.8c-2.18,3.2-3.26,8.08-3.26,14.66s1.09,11.48,3.26,14.72c2.18,3.2,5.61,4.8,10.3,4.8Z"/>
  <path d="M935.68,127.83c2.05-3.58,4.39-6.4,7.04-8.45,2.69-2.05,5.76-3.07,9.22-3.07,2.98,0,5.41.7,7.29,2.11l-1.28,14.59c-.21.94-.57,1.58-1.09,1.92-.47.34-1.13.51-1.98.51-.34,0-.79-.02-1.34-.06-.56-.04-1.13-.08-1.73-.13-.6-.09-1.22-.15-1.86-.19-.6-.09-1.15-.13-1.66-.13-2.9,0-5.23.77-6.98,2.3-1.7,1.54-3.16,3.67-4.35,6.4v40.32h-19.84v-66.37h11.78c.98,0,1.79.08,2.43.26.68.17,1.24.45,1.66.83.47.34.81.81,1.03,1.41.25.6.47,1.32.64,2.18l1.02,5.57Z"/>
</svg>