<?xml version="1.0" encoding="UTF-8"?>
<svg id="Layer_1" data-name="Layer 1" xmlns="http://www.w3.org/2000/svg" viewBox="0 0 130 38">
  <defs>
    <style>
      .cls-1 {
        fill: #16caed;
      }

      .cls-2 {
        fill: #fff;
      }

      .cls-3 {
        fill: #074aea;
      }

      .cls-4 {
        fill: #222;
      }

      .cls-5 {
        fill: #03a;
      }
    </style>
  </defs>
  <polygon class="cls-5" points="31.36 30.56 26.91 30.56 30.21 36.27 41.24 36.27 31.05 18.61 24.46 18.61 31.36 30.56"/>
  <polygon class="cls-3" points="14.54 25.37 21.45 13.4 23.67 17.25 26.97 11.54 21.45 1.99 11.25 19.66 14.54 25.37"/>
  <polygon class="cls-1" points="13.75 26.73 7.17 26.73 1.66 36.27 22.07 36.27 25.36 30.56 11.54 30.56 13.75 26.73"/>
  <polygon class="cls-2" points="21.45 13.4 11.54 30.56 31.36 30.56 21.45 13.4"/>
  <g>
    <path class="cls-4" d="M43.49,13.59h3.71c2.61,0,4.55.91,4.55,3.63s-1.94,3.82-4.48,3.82h-1.69v4.33h-2.09v-11.78ZM47.1,19.37c1.76,0,2.59-.7,2.59-2.15s-.91-1.96-2.67-1.96h-1.45v4.1h1.52Z"/>
    <path class="cls-4" d="M53.79,16.53h1.7l.16,1.58h.06c.63-1.15,1.57-1.79,2.51-1.79.45,0,.73.06,1,.18l-.36,1.8c-.31-.09-.54-.14-.91-.14-.71,0-1.56.48-2.09,1.83v5.39h-2.07v-8.84Z"/>
    <path class="cls-4" d="M60.26,13.8c0-.7.55-1.17,1.28-1.17s1.28.48,1.28,1.17-.55,1.17-1.28,1.17-1.28-.49-1.28-1.17ZM60.5,16.53h2.07v8.84h-2.07v-8.84Z"/>
    <path class="cls-4" d="M64.34,24.35l.96-1.32c.79.61,1.54.99,2.44.99.97,0,1.42-.45,1.42-1.06,0-.74-.96-1.07-1.9-1.43-1.16-.44-2.48-1.1-2.48-2.58s1.24-2.64,3.22-2.64c1.23,0,2.22.5,2.94,1.06l-.95,1.27c-.62-.45-1.24-.77-1.94-.77-.89,0-1.31.42-1.31.98,0,.7.89.97,1.85,1.32,1.2.45,2.53,1.02,2.53,2.67,0,1.52-1.2,2.74-3.44,2.74-1.21,0-2.48-.52-3.35-1.23Z"/>
    <path class="cls-4" d="M72.97,16.53h1.7l.16,1.21h.06c.75-.78,1.61-1.42,2.72-1.42,1.3,0,2.03.59,2.44,1.58.85-.9,1.72-1.58,2.84-1.58,1.87,0,2.73,1.28,2.73,3.51v5.55h-2.07v-5.28c0-1.45-.43-2-1.36-2-.56,0-1.17.36-1.85,1.1v6.18h-2.07v-5.28c0-1.45-.43-2-1.36-2-.55,0-1.17.36-1.85,1.1v6.18h-2.07v-8.84Z"/>
    <path class="cls-4" d="M87.71,19.52c0-3.85,2.41-6.14,5.39-6.14,1.48,0,2.65.71,3.39,1.49l-1.12,1.35c-.6-.6-1.31-1.02-2.23-1.02-1.92,0-3.29,1.62-3.29,4.26s1.27,4.31,3.24,4.31c1.04,0,1.85-.48,2.51-1.21l1.12,1.31c-.95,1.11-2.18,1.71-3.71,1.71-2.96,0-5.31-2.17-5.31-6.06Z"/>
    <path class="cls-4" d="M97.93,20.95c0-2.95,2-4.65,4.21-4.65s4.21,1.7,4.21,4.65-2,4.63-4.21,4.63-4.21-1.7-4.21-4.63ZM104.21,20.95c0-1.77-.78-2.95-2.07-2.95s-2.07,1.18-2.07,2.95.78,2.94,2.07,2.94,2.07-1.17,2.07-2.94Z"/>
    <path class="cls-4" d="M108.29,23.09v-10.44h2.07v10.55c0,.51.23.69.45.69.09,0,.17,0,.32-.04l.26,1.55c-.25.1-.6.18-1.09.18-1.47,0-2.01-.95-2.01-2.49Z"/>
    <path class="cls-4" d="M112.58,20.95c0-2.95,2-4.65,4.21-4.65s4.21,1.7,4.21,4.65-2,4.63-4.21,4.63-4.21-1.7-4.21-4.63ZM118.87,20.95c0-1.77-.78-2.95-2.07-2.95s-2.07,1.18-2.07,2.95.78,2.94,2.07,2.94,2.07-1.17,2.07-2.94Z"/>
    <path class="cls-4" d="M123.05,16.53h1.7l.16,1.58h.06c.63-1.15,1.57-1.79,2.51-1.79.45,0,.73.06,1,.18l-.36,1.8c-.31-.09-.54-.14-.91-.14-.71,0-1.56.48-2.09,1.83v5.39h-2.07v-8.84Z"/>
  </g>
</svg>