<?xml version="1.0" encoding="UTF-8"?>
<svg id="Layer_1" xmlns="http://www.w3.org/2000/svg" version="1.1" viewBox="0 0 1113.5 349.6">
  <!-- Generator: Adobe Illustrator 29.1.0, SVG Export Plug-In . SVG Version: 2.1.0 Build 142)  -->
  <defs>
    <style>
      .st0 {
        fill: #16caed;
      }

      .st1 {
        fill: #fff;
      }

      .st2 {
        fill: #074aea;
      }

      .st3 {
        fill: #222;
      }

      .st4 {
        fill: #03a;
      }
    </style>
  </defs>
  <polygon class="st4" points="271.9 263.4 237.5 263.4 263 307.6 348.4 307.6 269.5 170.9 218.5 170.9 271.9 263.4"/>
  <polygon class="st2" points="141.7 223.2 195.2 130.5 212.4 160.3 237.9 116.2 195.2 42.2 116.2 179 141.7 223.2"/>
  <polygon class="st0" points="135.6 233.7 84.6 233.7 42 307.6 199.9 307.6 225.5 263.4 118.5 263.4 135.6 233.7"/>
  <polygon class="st1" points="195.2 130.5 118.5 263.4 271.9 263.4 195.2 130.5"/>
  <g>
    <path class="st3" d="M437.1,157.2c0,5.6-1,10.2-3.1,14.1-2.1,3.8-4.8,6.9-8.3,9.2-3.5,2.3-7.5,4-12.1,5.1-4.6,1.1-9.3,1.6-14.3,1.6h-11.4v35.9h-23v-95.3h35c5.2,0,10.1.5,14.6,1.5,4.5,1,8.5,2.7,11.8,5,3.4,2.3,6,5.3,7.9,9,1.9,3.7,2.9,8.3,2.9,13.8ZM414.1,157.4c0-2.2-.5-4.1-1.3-5.5-.9-1.4-2.1-2.6-3.6-3.4-1.5-.8-3.3-1.3-5.2-1.6-1.9-.3-3.9-.4-6-.4h-10.1v22.5h9.7c2.2,0,4.2-.2,6.2-.5,2-.4,3.7-1,5.3-1.9,1.6-.9,2.8-2.1,3.7-3.6.9-1.5,1.3-3.3,1.3-5.6Z"/>
    <path class="st3" d="M487.4,174.3c-1-.3-2-.4-2.9-.5-.9,0-1.9-.1-2.8-.1-3,0-5.4.5-7.5,1.6-2,1.1-3.6,2.4-4.8,3.9-1.2,1.5-2.1,3.2-2.6,5s-.8,3.4-.8,4.7v34.4h-22.1v-66.9h21.3v9.7h.3c1.7-3.4,4.1-6.2,7.3-8.4,3.1-2.2,6.8-3.3,10.9-3.3s1.8,0,2.6.1c.9,0,1.5.2,2.1.4l-.9,19.5Z"/>
    <path class="st3" d="M521.2,134.8c0,1.7-.3,3.3-1,4.8s-1.6,2.8-2.7,3.8c-1.1,1.1-2.5,1.9-4,2.6-1.6.6-3.2.9-4.9.9-3.6,0-6.6-1.2-9-3.6-2.4-2.4-3.6-5.2-3.6-8.5s.3-3.2.9-4.6c.6-1.5,1.5-2.8,2.7-3.8,1.2-1.1,2.5-2,4-2.6,1.5-.7,3.2-1,5-1s3.3.3,4.9.9c1.6.6,2.9,1.5,4,2.6,1.1,1.1,2,2.4,2.7,3.8s1,3.1,1,4.8ZM497.5,223.2v-67h22.1v67h-22.1Z"/>
    <path class="st3" d="M576.5,175.9c-1.8-1.7-3.9-3.1-6.3-4.3-2.4-1.2-5-1.7-7.7-1.7s-4,.4-5.7,1.2c-1.7.8-2.6,2.2-2.6,4.2s1,3.2,2.9,4c1.9.8,5,1.7,9.4,2.7,2.5.5,5,1.3,7.6,2.3,2.6,1,4.9,2.3,6.9,3.9,2.1,1.6,3.7,3.6,5,5.9,1.3,2.3,1.9,5.1,1.9,8.3s-.9,7.8-2.6,10.7c-1.7,2.9-3.9,5.3-6.7,7.1-2.7,1.8-5.8,3.1-9.2,3.9-3.4.8-6.8,1.2-10.2,1.2-5.5,0-10.8-.9-16.1-2.6-5.2-1.7-9.6-4.3-13.1-7.7l12.4-13.1c2,2.2,4.4,3.9,7.3,5.4,2.9,1.4,5.9,2.2,9.1,2.2s3.6-.4,5.3-1.3c1.7-.9,2.6-2.4,2.6-4.5s-1.1-3.6-3.2-4.6c-2.2-1-5.5-2-10.1-3.1-2.3-.5-4.7-1.3-7-2.2-2.3-.9-4.4-2.1-6.3-3.6-1.8-1.5-3.3-3.4-4.5-5.7-1.2-2.2-1.7-4.9-1.7-8.1s.9-7.5,2.6-10.3c1.7-2.8,3.9-5.1,6.6-6.9,2.7-1.8,5.7-3.1,8.9-4,3.3-.9,6.5-1.3,9.8-1.3,5,0,9.9.8,14.7,2.4,4.8,1.6,8.9,3.9,12.2,7.1l-12.1,12.5Z"/>
    <path class="st3" d="M686.1,223.2v-36.6c0-1.9-.1-3.7-.4-5.4-.3-1.7-.8-3.3-1.5-4.5-.7-1.3-1.7-2.3-2.9-3-1.2-.8-2.8-1.1-4.8-1.1s-3.5.4-4.9,1.2c-1.4.8-2.6,1.9-3.5,3.2-.9,1.3-1.6,2.9-2.1,4.6-.4,1.7-.7,3.6-.7,5.4v36.2h-22.1v-38.2c0-3.9-.8-6.9-2.3-9.1-1.5-2.2-3.9-3.4-7.3-3.4s-6.2,1.4-8.1,4.2c-1.9,2.8-2.9,6.2-2.9,10.2v36.3h-22.2v-67h21.4v9.3h.3c.8-1.4,1.8-2.8,3-4.2,1.2-1.3,2.7-2.5,4.4-3.6,1.7-1,3.6-1.9,5.7-2.5,2.1-.6,4.4-.9,6.9-.9,4.8,0,8.9,1,12.3,3,3.4,2,6,4.8,7.9,8.5,2.2-3.5,5.1-6.3,8.6-8.3,3.5-2.1,7.8-3.1,12.8-3.1s8.4.8,11.5,2.5c3.1,1.7,5.6,3.8,7.5,6.5,1.9,2.6,3.3,5.6,4.1,8.9.9,3.3,1.3,6.5,1.3,9.6v41.4h-22.1Z"/>
    <path class="st3" d="M794.3,221.5c-6.2,2.8-13.3,4.2-21.4,4.2s-14.2-1.2-20.4-3.6c-6.2-2.4-11.6-5.9-16.2-10.3-4.6-4.4-8.2-9.8-10.8-15.9-2.6-6.2-3.9-13-3.9-20.5s1.3-14.5,4-20.7c2.6-6.2,6.3-11.5,11-15.8,4.7-4.3,10.1-7.7,16.4-10,6.3-2.3,13.1-3.5,20.3-3.5s13.3,1.2,19.8,3.6c6.5,2.4,11.8,5.9,15.8,10.4l-15.6,15.6c-2.2-3-5-5.2-8.5-6.6-3.5-1.4-7.1-2.2-10.8-2.2s-7.7.7-11.1,2.2c-3.4,1.5-6.3,3.5-8.7,6.1-2.4,2.6-4.3,5.7-5.7,9.2-1.3,3.5-2,7.4-2,11.6s.7,8.3,2,11.8c1.3,3.6,3.2,6.7,5.6,9.2,2.4,2.6,5.2,4.6,8.5,6,3.3,1.4,7,2.2,10.9,2.2s8.6-.9,12-2.7c3.4-1.8,6.1-4.1,8.2-7l16,15.1c-4.2,4.8-9.4,8.7-15.6,11.5Z"/>
    <path class="st3" d="M888,189.4c0,5.5-1,10.4-3,14.9-2,4.4-4.7,8.2-8.1,11.3-3.4,3.1-7.4,5.5-11.8,7.2-4.5,1.7-9.3,2.6-14.4,2.6s-9.8-.9-14.3-2.6c-4.5-1.7-8.5-4.1-11.8-7.2s-6-6.9-8-11.3c-2-4.4-3-9.4-3-14.9s1-10.4,3-14.8c2-4.4,4.6-8.1,8-11.2,3.4-3,7.3-5.4,11.8-7,4.5-1.6,9.3-2.4,14.3-2.4s9.9.8,14.4,2.4c4.5,1.6,8.4,3.9,11.8,7,3.4,3.1,6.1,6.8,8.1,11.2,2,4.4,3,9.3,3,14.8ZM866.7,189.4c0-2.2-.4-4.3-1.1-6.3-.7-2.1-1.7-3.9-3.1-5.4-1.3-1.6-3-2.8-5-3.8-2-1-4.3-1.5-6.9-1.5s-4.9.5-6.9,1.5c-2,1-3.6,2.3-4.9,3.8-1.3,1.6-2.3,3.4-3,5.4-.7,2.1-1,4.2-1,6.3s.3,4.3,1,6.3c.7,2.1,1.7,3.9,3,5.6,1.3,1.7,3,3,5,4,2,1,4.3,1.5,6.9,1.5s4.9-.5,6.9-1.5c2-1,3.6-2.3,5-4,1.3-1.7,2.4-3.5,3-5.6.7-2.1,1-4.2,1-6.3Z"/>
    <path class="st3" d="M902.2,223.2v-101.7h22.5v101.7h-22.5Z"/>
    <path class="st3" d="M1013.1,189.4c0,5.5-1,10.4-3,14.9-2,4.4-4.7,8.2-8.1,11.3-3.4,3.1-7.4,5.5-11.8,7.2-4.5,1.7-9.3,2.6-14.4,2.6s-9.8-.9-14.3-2.6c-4.5-1.7-8.5-4.1-11.8-7.2s-6-6.9-8-11.3c-2-4.4-3-9.4-3-14.9s1-10.4,3-14.8c2-4.4,4.6-8.1,8-11.2,3.4-3,7.3-5.4,11.8-7,4.5-1.6,9.3-2.4,14.3-2.4s9.9.8,14.4,2.4c4.5,1.6,8.4,3.9,11.8,7,3.4,3.1,6.1,6.8,8.1,11.2,2,4.4,3,9.3,3,14.8ZM991.8,189.4c0-2.2-.4-4.3-1.1-6.3-.7-2.1-1.7-3.9-3.1-5.4-1.3-1.6-3-2.8-5-3.8-2-1-4.3-1.5-6.9-1.5s-4.9.5-6.9,1.5c-2,1-3.6,2.3-4.9,3.8-1.3,1.6-2.3,3.4-3,5.4-.7,2.1-1,4.2-1,6.3s.3,4.3,1,6.3c.7,2.1,1.7,3.9,3,5.6,1.3,1.7,3,3,5,4,2,1,4.3,1.5,6.9,1.5s4.9-.5,6.9-1.5c2-1,3.6-2.3,5-4,1.3-1.7,2.4-3.5,3-5.6.7-2.1,1-4.2,1-6.3Z"/>
    <path class="st3" d="M1070.5,174.3c-1-.3-2-.4-2.9-.5-.9,0-1.9-.1-2.8-.1-3,0-5.4.5-7.5,1.6-2,1.1-3.6,2.4-4.8,3.9-1.2,1.5-2.1,3.2-2.6,5s-.8,3.4-.8,4.7v34.4h-22.1v-66.9h21.3v9.7h.3c1.7-3.4,4.1-6.2,7.3-8.4,3.1-2.2,6.8-3.3,10.9-3.3s1.8,0,2.6.1c.9,0,1.5.2,2.1.4l-.9,19.5Z"/>
  </g>
</svg>